<?xml version="1.0" encoding="UTF-8"?>
<svg version="1.1" xmlns="http://www.w3.org/2000/svg">
  <path
    d="M0 0 C3.19210984 1.34404625 4.87217755 2.79129781 6.21533203 6.02001953 C6.54573486 7.18960205 6.54573486 7.18960205 6.8828125 8.3828125 C7.27315674 9.73995361 7.27315674 9.73995361 7.67138672 11.12451172 C7.9448291 12.11467285 8.21827148 13.10483398 8.5 14.125 C8.79277832 15.15512207 9.08555664 16.18524414 9.38720703 17.24658203 C12.49241819 28.24131777 15.47620231 39.27206352 18.44189453 50.30517578 C18.6296344 51.00088684 18.81737427 51.6965979 19.01080322 52.41339111 C19.5242052 54.31668303 20.03536681 56.22057886 20.54638672 58.12451172 C21.25514594 60.91201116 21.25514594 60.91201116 22.375 63 C33.265 63.495 33.265 63.495 44.375 64 C42.64998246 68.31254384 41.37905856 70.49892628 38.5 73.9375 C36.17145181 76.75959917 33.94417523 79.52462965 32 82.625 C31.46375 83.40875 30.9275 84.1925 30.375 85 C29.715 85 29.055 85 28.375 85 C28.15328125 85.53882812 27.9315625 86.07765625 27.703125 86.6328125 C25.93714056 89.78042007 23.58137294 92.26282914 21.125 94.875 C20.63136963 95.40512695 20.13773926 95.93525391 19.62915039 96.48144531 C18.21672693 97.99304733 16.79713792 99.49754199 15.375 101 C14.71886719 101.69867188 14.06273437 102.39734375 13.38671875 103.1171875 C12.0950463 104.45693709 10.74247428 105.73771605 9.375 107 C8.715 107 8.055 107 7.375 107 C7.81779297 106.15501953 7.81779297 106.15501953 8.26953125 105.29296875 C11.638424 98.30519474 13.39019127 91.62208399 11.375 84 C9.93326678 79.9375793 8.36617699 76.88104622 5.125 74 C1.2256454 72.58205287 -1.46694644 72.6039949 -5.625 73 C-7.96761608 74.37926773 -7.96761608 74.37926773 -9.625 76 C-10.285 76 -10.945 76 -11.625 76 C-14.75411319 83.37576679 -16.217648 91.30322063 -14.015625 99.1796875 C-13.18629502 101.23476278 -13.18629502 101.23476278 -11.625 104 C-11.233125 104.804375 -10.84125 105.60875 -10.4375 106.4375 C-10.169375 106.953125 -9.90125 107.46875 -9.625 108 C-17.18489703 104.47534212 -22.3325444 98.25925069 -27.625 92 C-28.55464934 90.93112452 -29.48575252 89.86351251 -30.41796875 88.796875 C-35.39765589 83.08149779 -40.3037107 77.31354548 -44.9375 71.3125 C-45.67613281 70.35988281 -46.41476563 69.40726562 -47.17578125 68.42578125 C-47.89314453 67.22501953 -47.89314453 67.22501953 -48.625 66 C-48.295 65.01 -47.965 64.02 -47.625 63 C-40.035 63 -32.445 63 -24.625 63 C-22.03446399 57.17129397 -20.01073916 52.45079246 -18.40625 46.46484375 C-18.22163208 45.78305557 -18.03701416 45.1012674 -17.84680176 44.39881897 C-17.26603571 42.24681304 -16.69548272 40.09225165 -16.125 37.9375 C-15.74412643 36.5239168 -15.36261916 35.11050418 -14.98046875 33.69726562 C-14.60121547 32.28655158 -14.22230864 30.87574435 -13.84375 29.46484375 C-13.65651367 28.76966644 -13.46927734 28.07448914 -13.27636719 27.35824585 C-12.32069373 23.76932843 -11.42803725 20.17846947 -10.62890625 16.55126953 C-10.46491333 15.83008438 -10.30092041 15.10889923 -10.13195801 14.36585999 C-9.68418111 12.37790924 -9.25645368 10.38547281 -8.83007812 8.39282227 C-7.26899937 3.99770243 -5.04487327 0 0 0 Z "
    fill="#F14382" transform="translate(95.625,3)" />
  <path
    d="M0 0 C3.58305992 -0.11627503 7.16563417 -0.1872736 10.75 -0.25 C11.76578125 -0.28351563 12.7815625 -0.31703125 13.828125 -0.3515625 C21.32128687 -0.45015674 21.32128687 -0.45015674 24.66796875 1.76953125 C26.26465175 4.44315587 26.52442101 6.81080979 26.62890625 9.90234375 C25.65215694 13.16019705 23.48500762 14.73093097 21 17 C20.05382812 17.88558594 19.10765625 18.77117187 18.1328125 19.68359375 C2.54799367 34 2.54799367 34 0 34 C0 34.66 0 35.32 0 36 C-1.6785513 37.49629179 -3.41958898 38.92292661 -5.1875 40.3125 C-7.1420407 41.85363048 -9.07960884 43.41651957 -11 45 C-12.44826172 46.07314453 -12.44826172 46.07314453 -13.92578125 47.16796875 C-16.14420225 50.19688631 -16.33447581 50.68202418 -16.1171875 54.22265625 C-14.87482405 62.11677977 -12.39212836 69.79054165 -10.125 77.4375 C-9.67234998 78.98478432 -9.22052161 80.53230925 -8.76953125 82.08007812 C-8.11241281 84.33377081 -7.45515656 86.58741959 -6.79646301 88.84065247 C-4.33520858 97.26127372 -4.33520858 97.26127372 -3.20703125 101.2578125 C-2.97991455 102.05719238 -2.75279785 102.85657227 -2.51879883 103.68017578 C-1.60012291 107.78806216 -1.30530677 111.83955946 -2 116 C-3.6875 118.625 -3.6875 118.625 -6 120 C-8.28125 120.390625 -8.28125 120.390625 -11 120 C-13.1557337 118.43597803 -14.92415293 116.9645762 -16.8125 115.125 C-17.33803467 114.62395752 -17.86356934 114.12291504 -18.4050293 113.60668945 C-29.65410322 102.68821742 -38.96329124 89.74498126 -39.375 73.625 C-39.44401259 54.70476781 -27.92749416 39.93010671 -16.51025391 25.86181641 C-14.34499497 23.19252048 -12.1973877 20.50920873 -10.04980469 17.82568359 C-8.99654259 16.51054137 -7.94128822 15.19699155 -6.88378906 13.88525391 C-3.08969369 9.16754542 -0.80661007 6.04957554 0 0 Z "
    fill="#F2C112" transform="translate(147,67)" />
  <path
    d="M0 0 C1.03125 0.01804687 2.0625 0.03609375 3.125 0.0546875 C5.66761064 0.10177288 8.20833162 0.1675195 10.75 0.25 C10.90275391 0.82065186 11.05550781 1.39130371 11.21289062 1.97924805 C12.92523797 7.77047914 15.17710858 11.64930067 19.25 16.0625 C20.21954787 17.15163401 21.18831878 18.24146024 22.15625 19.33203125 C23.0121875 20.29496094 23.868125 21.25789063 24.75 22.25 C27.75 25.93008475 27.75 25.93008475 27.75 28.25 C28.41 28.25 29.07 28.25 29.75 28.25 C31.09106445 29.81958008 31.09106445 29.81958008 32.61328125 32.01953125 C33.16846436 32.82100586 33.72364746 33.62248047 34.2956543 34.44824219 C34.87871338 35.31094727 35.46177246 36.17365234 36.0625 37.0625 C36.65264893 37.93165039 37.24279785 38.80080078 37.85083008 39.69628906 C46.75836422 53.02715734 51.63424441 66.06521251 49.75 82.25 C48.60492763 86.59930923 46.94187006 90.3326152 44.75 94.25 C44.3271875 95.013125 43.904375 95.77625 43.46875 96.5625 C37.99588069 105.47182213 30.09784215 113.99197333 21.75 120.25 C18.47393294 120.25 16.67615618 119.98271785 14.09591675 117.94139099 C11.58533665 114.78638712 12.35049716 111.08676199 12.75 107.25 C13.40475155 103.8520385 14.32654306 100.56379161 15.3046875 97.24609375 C15.56629669 96.32337173 15.82790588 95.40064972 16.09744263 94.44996643 C16.92894296 91.52586055 17.77645438 88.60669977 18.625 85.6875 C19.46269802 82.76376494 20.29710811 79.83910628 21.13113403 76.9143219 C21.64909753 75.10255817 22.1698257 73.29158167 22.69381714 71.48155212 C26.71010636 59.48220487 26.71010636 59.48220487 25.75 47.25 C24.42567327 46.56561639 23.09022876 45.90269373 21.75 45.25 C20.02539921 43.77137145 18.34181854 42.24436237 16.6875 40.6875 C10.59574874 35.05181568 4.23399529 29.79910824 -2.2734375 24.6484375 C-3.63311883 23.55686235 -4.94873174 22.41059061 -6.25 21.25 C-6.25 20.59 -6.25 19.93 -6.25 19.25 C-6.806875 19.023125 -7.36375 18.79625 -7.9375 18.5625 C-11.06725537 16.78615236 -13.02101476 15.0981478 -15.25 12.25 C-16.11643413 8.52507379 -15.91887419 5.370021 -13.91796875 2.01953125 C-9.58430482 -0.85477294 -5.06712233 -0.16718932 0 0 Z "
    fill="#53AFDC" transform="translate(29.25,66.75)" />
  <path
    d="M0 0 C0 1.65 0 3.3 0 5 C0.66 5 1.32 5 2 5 C2.28198242 6.01723145 2.56396484 7.03446289 2.85449219 8.08251953 C3.92002191 11.92577144 4.98627883 15.76882131 6.05273438 19.61181641 C6.51060917 21.26215363 6.96829742 22.91254263 7.42578125 24.56298828 C8.0906314 26.96140603 8.7562322 29.35961463 9.421875 31.7578125 C9.63972656 32.54461395 9.85757813 33.33141541 10.08203125 34.14205933 C11.0987136 37.80398971 12.12832275 41.46062308 13.203125 45.10595703 C13.5640625 46.33427246 13.925 47.56258789 14.296875 48.828125 C14.77398926 50.42382324 14.77398926 50.42382324 15.26074219 52.05175781 C16.34912173 56.39233619 16.85451905 60.58066917 16 65 C14.3125 67.625 14.3125 67.625 12 69 C9.71875 69.390625 9.71875 69.390625 7 69 C4.84457142 67.4361994 3.0763647 65.96352345 1.1875 64.125 C0.40354858 63.3832251 0.40354858 63.3832251 -0.39624023 62.62646484 C-10.31414575 53.05465687 -16.71963518 44.6988719 -17.3125 30.6875 C-17.13894337 19.12231732 -10.53806652 9.87430627 -2.8125 1.6796875 C-1 0 -1 0 0 0 Z "
    fill="#AE890C" transform="translate(129,118)" />
  <path
    d="M0 0 C8.75182985 7.9313458 16.13047732 18.11526185 17.3046875 30.11328125 C17.64703416 45.38574623 10.07560495 53.41356893 0 64 C-4.2479938 68.42931061 -4.2479938 68.42931061 -7 70 C-10.36014974 70.06461826 -12.021653 69.77825421 -14.65031433 67.68721008 C-17.16843886 64.53936226 -16.39521175 60.83485791 -16 57 C-15.35454594 53.58055484 -14.44658191 50.26724218 -13.48046875 46.92578125 C-13.22123123 45.99831589 -12.96199371 45.07085052 -12.69490051 44.11528015 C-12.14809128 42.16830555 -11.59565113 40.22290437 -11.0378418 38.27905273 C-10.18795128 35.31407437 -9.35727752 32.34420943 -8.52929688 29.37304688 C-7.99330896 27.47364151 -7.45623648 25.5745418 -6.91796875 23.67578125 C-6.67096725 22.79440994 -6.42396576 21.91303864 -6.16947937 21.00495911 C-4.83549463 16.3843015 -3.2663146 12.26737857 -1 8 C-0.44951988 5.7279419 -0.44951988 5.7279419 -0.3125 3.625 C-0.1578125 1.830625 -0.1578125 1.830625 0 0 Z "
    fill="#266F91" transform="translate(58,117)" />
  <path
    d="M0 0 C7.20827251 3.90838152 10.5020101 10.5060303 13 18 C13.14877911 20.5979122 13.23103235 23.15143149 13.25 25.75 C13.270625 26.4409375 13.29125 27.131875 13.3125 27.84375 C13.35088173 32.94852042 12.27330153 36.42946746 10 41 C9.67 41 9.34 41 9 41 C8.90203125 40.0821875 8.8040625 39.164375 8.703125 38.21875 C7.4283402 26.41634561 7.4283402 26.41634561 0.75 17 C-3.1493546 15.58205287 -5.84194644 15.6039949 -10 16 C-12.34261608 17.37926773 -12.34261608 17.37926773 -14 19 C-14.66 19 -15.32 19 -16 19 C-16.99 21.97 -17.98 24.94 -19 28 C-19.66 28 -20.32 28 -21 28 C-21.33 30.31 -21.66 32.62 -22 35 C-22.66 35 -23.32 35 -24 35 C-26.80075373 29.39849253 -25.79468524 19.88537584 -24.1640625 13.96484375 C-19.34279565 3.49719391 -11.88907597 -2.7805097 0 0 Z "
    fill="#AE154C" transform="translate(100,60)" />
  <path
    d="M0 0 C7.59 0.33 15.18 0.66 23 1 C22.34 2.32 21.68 3.64 21 5 C21 4.34 21 3.68 21 3 C19.81921875 3.01160156 18.6384375 3.02320312 17.421875 3.03515625 C15.86458492 3.04453752 14.30729312 3.05363736 12.75 3.0625 C11.97269531 3.07087891 11.19539062 3.07925781 10.39453125 3.08789062 C9.26337891 3.09272461 9.26337891 3.09272461 8.109375 3.09765625 C7.07248535 3.10551147 7.07248535 3.10551147 6.01464844 3.11352539 C3.90026102 2.99437971 2.03358485 2.57618237 0 2 C0 1.34 0 0.68 0 0 Z "
    fill="#F579A5" transform="translate(117,66)" />
  <path
    d="M0 0 C0.33 1.32 0.66 2.64 1 4 C1.66 3.01 2.32 2.02 3 1 C3.45375 2.0725 3.9075 3.145 4.375 4.25 C5.50088537 6.88062317 6.67920206 9.46000396 8 12 C5.09220751 10.65843569 2.7482101 9.13892965 0.3125 7.0625 C-0.28949219 6.55847656 -0.89148438 6.05445312 -1.51171875 5.53515625 C-3 4 -3 4 -4 1 C-2 0 -2 0 0 0 Z "
    fill="#EA78A2" transform="translate(78,99)" />
  <path
    d="M0 0 C0.33 0 0.66 0 1 0 C1.76595745 18.34042553 1.76595745 18.34042553 -3 27 C-4 24 -4 24 -2.625 20.25 C-0.25251436 13.71753953 -0.26280714 6.87829725 0 0 Z "
    fill="#87C8E7" transform="translate(78,132)" />
  <path
    d="M0 0 C0.33 0 0.66 0 1 0 C1 5.28 1 10.56 1 16 C-1 15 -1 15 -1.6328125 13.15234375 C-1.79523438 12.42144531 -1.95765625 11.69054687 -2.125 10.9375 C-2.29257813 10.20402344 -2.46015625 9.47054687 -2.6328125 8.71484375 C-2.75398438 8.14894531 -2.87515625 7.58304687 -3 7 C-2.34 7 -1.68 7 -1 7 C-0.67 4.69 -0.34 2.38 0 0 Z "
    fill="#C13C6C" transform="translate(79,88)" />
  <path
    d="M0 0 C0.33 0.99 0.66 1.98 1 3 C1.66 3.33 2.32 3.66 3 4 C1.37660195 5.70884005 -0.29319053 7.37446717 -2 9 C-2.66 9 -3.32 9 -4 9 C-3.71125 8.443125 -3.4225 7.88625 -3.125 7.3125 C-1.9586747 4.91505355 -0.9660119 2.48403061 0 0 Z "
    fill="#E68AAD" transform="translate(107,101)" />
  <path
    d="M0 0 C2.67479327 0.26095544 4.60095141 0.8004757 7 2 C6.67 2.66 6.34 3.32 6 4 C3.03 3.67 0.06 3.34 -3 3 C-2.01 2.01 -1.02 1.02 0 0 Z "
    fill="#F674A3" transform="translate(93,3)" />
</svg>